<?xml version="1.0" encoding="UTF-8"?>
<svg width="40px" height="40px" viewBox="0 0 40 40" version="1.1" xmlns="http://www.w3.org/2000/svg" xmlns:xlink="http://www.w3.org/1999/xlink">
    <!-- Generator: Sketch 46.2 (44496) - http://www.bohemiancoding.com/sketch -->
    <title>Buttom_Doctor_UnClick@2x</title>
    <desc>Created with Sketch.</desc>
    <defs></defs>
    <g id="Symbols" stroke="none" stroke-width="1" fill="none" fill-rule="evenodd">
        <g id="medical_unclick" stroke="#333333">
            <g id="Buttom_Doctor_UnClick">
                <g>
                    <circle id="Oval-2" cx="20" cy="20" r="19.5"></circle>
                    <g id="Group-2" transform="translate(8.000000, 9.142857)">
                        <path d="M12.0222479,17.8571429 L2,17.8571429 C0.8954305,17.8571429 -1.4075584e-14,16.9617124 -1.42108547e-14,15.8571429 L-1.42108547e-14,2 L-1.42108547e-14,2 C-1.43461255e-14,0.8954305 0.8954305,-1.4896127e-14 2,-1.50990331e-14 L2,-1.42108547e-14 L22,-1.42108547e-14 C23.1045695,-1.44137608e-14 24,0.8954305 24,2 L24,15.8571429 C24,16.9617124 23.1045695,17.8571429 22,17.8571429 L12.0222479,17.8571429 L12.0222479,22.7058824 L4.58750824,22.7058824 L12.0222479,22.7058824 L12.0222479,17.8571429 Z M12.0222479,22.7058824 L19.5591796,22.7058824 L12.0222479,22.7058824 L12.0222479,22.7069112 L12.0222479,22.7058824 Z" id="Line-11" stroke-linecap="round" stroke-linejoin="round"></path>
                        <polygon id="Path" stroke-width="5" points="6.28571429 9.13251777 11.987409 9.1241391 11.987409 3.42857143 11.987409 14.8571429 11.987409 9.1241391 17.7142857 9.1241391"></polygon>
                    </g>
                </g>
            </g>
        </g>
    </g>
</svg>