<?xml version="1.0" encoding="UTF-8"?>
<svg width="40px" height="40px" viewBox="0 0 40 40" version="1.1" xmlns="http://www.w3.org/2000/svg" xmlns:xlink="http://www.w3.org/1999/xlink">
    <!-- Generator: Sketch 46.2 (44496) - http://www.bohemiancoding.com/sketch -->
    <title>Buttom_Parenting@2x</title>
    <desc>Created with Sketch.</desc>
    <defs></defs>
    <g id="Symbols" stroke="none" stroke-width="1" fill="none" fill-rule="evenodd">
        <g id="parenting_unclick">
            <g id="parenting_clicked">
                <g id="Buttom_Parenting">
                    <circle id="Oval-2" stroke="#333333" cx="20" cy="20" r="19.5"></circle>
                    <g id="Group" transform="translate(8.000000, 5.600000)">
                        <path d="M12.8882486,11.5599402 C11.3526175,9.77939532 9.46216584,8.87903546 7.21689376,8.8588606 C2.96728428,8.8206758 -0.00230787067,12.3442803 -0.00230787067,15.9313732 C-0.00230787067,19.518466 2.74860968,22.9739921 7.21689376,22.9875412 C9.50829563,22.9944894 11.3987472,22.1068402 12.8882486,20.3245938 C14.3352396,21.8474999 16.0486187,22.9903016 18.028386,23.7529989 C20.0081534,24.5156962 22.2649804,24.8503173 24.7988671,24.7568623 M24.9910488,3.87332155 C23.4554177,2.09277668 21.5649661,1.19241682 19.319694,1.17224196 C15.0700845,1.13405716 12.1004924,4.6576617 12.1004924,8.24475452 C12.1004924,11.8318473 14.8514099,15.2873734 19.319694,15.3009225 C21.6110959,15.3078707 23.5015475,14.4202216 24.9910488,12.6379751" id="Line-7" stroke="#333333" stroke-linecap="round" transform="translate(12.494370, 12.972049) rotate(90.000000) translate(-12.494370, -12.972049) "></path>
                        <path d="M7.02926148,7.07897501 C6.53486858,7.07897501 6.13408395,6.66928258 6.13408395,6.16390136 C6.13408395,5.65852014 6.53486858,5.24882771 7.02926148,5.24882771 C7.52365438,5.24882771 7.92443901,5.65852014 7.92443901,6.16390136 C7.92443901,6.66928258 7.52365438,7.07897501 7.02926148,7.07897501 Z M12.4003267,7.07897501 C11.9059338,7.07897501 11.5051491,6.66928258 11.5051491,6.16390136 C11.5051491,5.65852014 11.9059338,5.24882771 12.4003267,5.24882771 C12.8947196,5.24882771 13.2955042,5.65852014 13.2955042,6.16390136 C13.2955042,6.66928258 12.8947196,7.07897501 12.4003267,7.07897501 Z M14.4771385,20.0364179 C13.9827456,20.0364179 13.581961,19.6267254 13.581961,19.1213442 C13.581961,18.615963 13.9827456,18.2062706 14.4771385,18.2062706 C14.9715314,18.2062706 15.3723161,18.615963 15.3723161,19.1213442 C15.3723161,19.6267254 14.9715314,20.0364179 14.4771385,20.0364179 Z M19.8482037,20.0364179 C19.3538108,20.0364179 18.9530262,19.6267254 18.9530262,19.1213442 C18.9530262,18.615963 19.3538108,18.2062706 19.8482037,18.2062706 C20.3425966,18.2062706 20.7433813,18.615963 20.7433813,19.1213442 C20.7433813,19.6267254 20.3425966,20.0364179 19.8482037,20.0364179 Z" id="Oval-3" fill="#333333"></path>
                    </g>
                </g>
            </g>
        </g>
    </g>
</svg>