<?xml version="1.0" encoding="UTF-8"?>
<svg width="40px" height="40px" viewBox="0 0 40 40" version="1.1" xmlns="http://www.w3.org/2000/svg" xmlns:xlink="http://www.w3.org/1999/xlink">
    <!-- Generator: Sketch 46.2 (44496) - http://www.bohemiancoding.com/sketch -->
    <title>Buttom_Life_UnClick@2x</title>
    <desc>Created with Sketch.</desc>
    <defs></defs>
    <g id="Symbols" stroke="none" stroke-width="1" fill="none" fill-rule="evenodd">
        <g id="life_unclick" stroke="#333333">
            <g id="Buttom_Life_UnClick">
                <g>
                    <circle id="Oval-2" cx="20" cy="20" r="19.5"></circle>
                    <g id="CUp" transform="translate(9.142857, 8.000000)" stroke-linecap="round" stroke-linejoin="round">
                        <path d="M0.648168234,24.5763535 L20.3601679,24.5763535 M18.6850641,13.2854414 C17.8554644,19.4430728 14.8131358,22.5464707 9.55807825,22.595635 C3.71400554,22.6503099 0.527979452,19.0129019 1.13686838e-13,11.683411 L20.3601679,11.683411 C22.2185704,11.6764087 23.14149,12.8372999 23.1289269,15.1660846 C23.1184348,17.1109697 21.8240421,17.882624 20.9704608,18.2271308 C20.4927928,18.4199184 19.7309939,18.5201517 18.6850641,18.5278305 M10.2231744,2.87877703 C10.2847983,4.0995198 9.69194573,4.7045626 8.44461686,4.69390543 C7.2952357,4.68408512 6.70814318,3.73890564 6.69305837,2.51926371 C6.67574946,1.11979706 7.88916092,-3.12346828e-13 9.59034155,-3.12638804e-13 C11.4441635,-3.12638804e-13 12.5075826,1.17485671 12.4878509,2.87877703 C12.4561626,5.61519219 9.31083283,6.14842487 9.31083283,7.33288494 C9.31083283,8.00495239 9.31083283,8.87920606 9.31083283,9.95564594" id="Line-6"></path>
                    </g>
                </g>
            </g>
        </g>
    </g>
</svg>