<?xml version="1.0" encoding="UTF-8"?>
<svg width="40px" height="40px" viewBox="0 0 40 40" version="1.1" xmlns="http://www.w3.org/2000/svg" xmlns:xlink="http://www.w3.org/1999/xlink">
    <!-- Generator: Sketch 46.2 (44496) - http://www.bohemiancoding.com/sketch -->
    <title>Buttom_Entertainment_UnClick@2x</title>
    <desc>Created with Sketch.</desc>
    <defs></defs>
    <g id="Symbols" stroke="none" stroke-width="1" fill="none" fill-rule="evenodd">
        <g id="entertainment_unclick" stroke="#333333">
            <g id="Buttom_Entertainment_UnClick">
                <g>
                    <circle id="Oval-2" cx="20" cy="20" r="19.5"></circle>
                    <path d="M5.71428571,24.7279369 C9.13466755,29.575979 13.9498963,32 20.159972,32 C26.3700476,32 31.1084836,29.6402907 34.3752799,24.9208721 M12.0730732,17.8685941 L14.9697191,17.8685941 L12.4752579,29.7997575 M12.7613868,14.3518371 L15.6580327,14.3518371 M13.5813964,10.8531259 L16.3359597,10.8748443 L16.5761923,9.9029088 L16.5761923,9.9029088 C16.6865353,9.45648156 17.0871161,9.14285714 17.5469779,9.14285714 C20.5515539,9.14285714 23.5561298,9.14285714 26.5607057,9.14285714 C27.3360922,9.14285714 30.2037475,10.5193596 30.207447,13.3753939 C30.2109701,16.0952625 28.0101396,17.6278468 26.5607057,18.2344044 C25.7244299,18.5843683 24.5889596,18.9416247 23.1542949,19.3061737 L23.1543033,19.3062066 C22.619047,19.4422155 22.295393,19.9863834 22.4314019,20.5216397 C22.4565673,20.6206771 22.4967643,20.7152721 22.5505925,20.8021297 L28.028378,29.6411212 M20.5821764,13.2256032 C20.8789708,13.2256032 21.1195701,12.9850921 21.1195701,12.6884067 C21.1195701,12.3917212 20.8789708,12.1512102 20.5821764,12.1512102 C20.2853821,12.1512102 20.0447828,12.3917212 20.0447828,12.6884067 C20.0447828,12.9850921 20.2853821,13.2256032 20.5821764,13.2256032 Z" id="Line-5"></path>
                </g>
            </g>
        </g>
    </g>
</svg>