<?xml version="1.0" encoding="UTF-8"?>
<svg width="46px" height="24px" viewBox="0 0 46 24" version="1.1" xmlns="http://www.w3.org/2000/svg" xmlns:xlink="http://www.w3.org/1999/xlink">
    <!-- Generator: Sketch 46.2 (44496) - http://www.bohemiancoding.com/sketch -->
    <title>LOGO_small</title>
    <desc>Created with Sketch.</desc>
    <defs></defs>
    <g id="DOCTOR-OL" stroke="none" stroke-width="1" fill="none" fill-rule="evenodd">
        <g id="Doctor-OL_PED" transform="translate(-23.000000, -115.000000)">
            <g id="Content" transform="translate(-1.000000, 109.000000)">
                <g id="Navi'-Bar" transform="translate(1.000000, 0.000000)">
                    <g id="Title-Bar">
                        <g id="LOGO_small" transform="translate(23.000000, 6.000000)">
                            <g id="LOGO">
                                <path d="M22,21.9818216 L22,17.0004256 L23.4606656,17.0004256 C23.474801,17.0004266 24.2134682,17.0002844 24.2276,17 C25.0464659,17.0018036 25.7115834,17.5877767 25.7115834,18.3106111 C25.7115834,18.6582128 25.5577735,18.9741649 25.3068433,19.2085236 C25.0359665,19.4615116 24.6519155,19.6194186 24.2260019,19.6194186 L23.4832622,19.6212759 L25.7139538,21.9818216 M29.9155844,22 C31.3178139,22 32.4545455,20.8807119 32.4545455,19.5 C32.4545455,18.1192881 31.3178139,17 29.9155844,17 C28.513355,17 27.3766234,18.1192881 27.3766234,19.5 C27.3766234,20.8807119 28.513355,22 29.9155844,22 Z M34.2467532,21.9818216 L34.2467532,17.0004256 L35.7074188,17.0004256 C35.7215543,17.0004266 36.4602215,17.0002844 36.4743533,17 C37.2932192,17.0018036 37.9583367,17.5877767 37.9583367,18.3106111 C37.9583367,18.6582128 37.8045267,18.9741649 37.5535966,19.2085236 C37.2827198,19.4615116 36.8986687,19.6194186 36.4727552,19.6194186 L35.7300154,19.6212759 L37.960707,21.9818216 M42.461039,22 C43.8632684,22 45,20.8807119 45,19.5 C45,18.1192881 43.8632684,17 42.461039,17 C41.0588095,17 39.9220779,18.1192881 39.9220779,19.5 C39.9220779,20.8807119 41.0588095,22 42.461039,22 Z" id="Oval" stroke="#333333" stroke-linecap="round" stroke-linejoin="round"></path>
                                <path d="M22,14 L22,6.21698113 C22,4.78416692 23.1421307,3.62264151 24.5510204,3.62264151 M29.4489796,3.62264151 C30.8578693,3.62264151 32,4.78416692 32,6.21698113 L32,14 M24.3979592,12.2877358 L26.9716109,9.16960972 L29.5452626,12.2877358 M24.3979592,9.1745283 L26.9716109,6.05640217 L29.5452626,9.1745283 M27,4.03773585 C27.2817779,4.03773585 27.5102041,3.80543077 27.5102041,3.51886792 C27.5102041,3.23230508 27.2817779,3 27,3 C26.7182221,3 26.4897959,3.23230508 26.4897959,3.51886792 C26.4897959,3.80543077 26.7182221,4.03773585 27,4.03773585 Z" id="Rectangle" stroke="#333333" stroke-linecap="round" stroke-linejoin="round"></path>
                                <path d="M35,14 L35,6.21698113 C35,4.78416692 36.1421307,3.62264151 37.5510204,3.62264151 M42.4489796,3.62264151 C43.8578693,3.62264151 45,4.78416692 45,6.21698113 L45,14 M37.3979592,12.2877358 L39.9716109,9.16960972 L42.5452626,12.2877358 M37.3979592,9.1745283 L39.9716109,6.05640217 L42.5452626,9.1745283 M40,4.03773585 C40.2817779,4.03773585 40.5102041,3.80543077 40.5102041,3.51886792 C40.5102041,3.23230508 40.2817779,3 40,3 C39.7182221,3 39.4897959,3.23230508 39.4897959,3.51886792 C39.4897959,3.80543077 39.7182221,4.03773585 40,4.03773585 Z" id="Rectangle" stroke="#333333" stroke-linecap="round" stroke-linejoin="round"></path>
                                <g id="Logo">
                                    <path d="M9.45152295,23.5 C14.8086771,23.5 18.8790067,18.24671 18.4724477,12.0316827 C18.0624941,5.76476383 13.9996579,0.5 9.5,0.5 C4.87098469,0.5 0.708107692,6.2406353 0.518404608,12.0329606 C0.193031249,18.4656988 4.3089101,23.5 9.45152295,23.5 Z" id="Egg" stroke="#7ED5D9"></path>
                                    <path d="M10.3281717,23.8 C9.17927945,23.7813456 8.38503443,23.6742265 7.94543669,23.4786427 C7.31654772,23.1988403 6.75511181,22.7060315 6.48751445,22.4305684 C4.91216877,20.8089174 4.80479187,19.0249905 4.7570693,18.0820873 C4.65142802,15.9948256 5.75092636,14.0596191 6.64049095,13.3287574 C7.34766885,12.7477436 8.14599839,12.2137384 9.65535352,12.2001995 C12.192424,12.177442 14.011677,14.1052384 14.0471943,16.1164575 C14.0827116,18.1276766 12.7171069,19.4349311 11.3104071,19.6496262 C10.0499028,19.8420084 8.92824603,19.4574362 7.94543669,18.4959096 C8.91443634,19.1486664 9.82540683,19.292662 10.6783482,18.9278964 C11.7219128,18.4816096 12.4695656,17.413898 12.137065,16.1164575 C11.8594854,15.0333229 10.7395423,14.4203266 9.79748192,14.3682355 C9.06571675,14.3277725 8.42013598,14.3682355 7.59689991,15.0590303 C6.77366383,15.7498251 6.33111837,16.5788911 5.94149732,18.0820873 C5.6038865,19.5119471 5.83519428,20.9585163 6.80190674,22.1890267 C7.06689514,22.5212501 7.45633161,22.8420894 7.94543669,23.1506623 C8.24060709,23.2955449 8.51721847,23.4295418 8.87024439,23.5190617 C9.22688033,23.609497 9.71285612,23.7031431 10.3281717,23.8 Z" id="Path" fill="#7ED5D9"></path>
                                </g>
                            </g>
                        </g>
                    </g>
                </g>
            </g>
        </g>
    </g>
</svg>