<?xml version="1.0" encoding="UTF-8"?>
<svg width="63px" height="33px" viewBox="0 0 63 33" version="1.1" xmlns="http://www.w3.org/2000/svg" xmlns:xlink="http://www.w3.org/1999/xlink">
    <!-- Generator: Sketch 46.2 (44496) - http://www.bohemiancoding.com/sketch -->
    <title>LOGO_small@2x</title>
    <desc>Created with Sketch.</desc>
    <defs></defs>
    <g id="Symbols" stroke="none" stroke-width="1" fill="none" fill-rule="evenodd">
        <g id="Title-Bar" transform="translate(-23.000000, -18.000000)">
            <g id="LOGO_small">
                <g transform="translate(23.000000, 18.000000)">
                    <g id="LOGO">
                        <path d="M30,29.9745502 L30,23.0005959 L32.0322304,23.0005959 C32.0518971,23.0005972 33.079608,23.0003981 33.0992696,23 C34.2385613,23.0025251 35.1639422,23.8228874 35.1639422,24.8348556 C35.1639422,25.3214979 34.9499457,25.7638309 34.6008255,26.091933 C34.2239535,26.4461162 33.6896215,26.6671861 33.0970461,26.6671861 L32.0636691,26.6697863 L35.16724,29.9745502 M41.012987,30 C42.963915,30 44.5454545,28.4329966 44.5454545,26.5 C44.5454545,24.5670034 42.963915,23 41.012987,23 C39.0620591,23 37.4805195,24.5670034 37.4805195,26.5 C37.4805195,28.4329966 39.0620591,30 41.012987,30 Z M47.038961,29.9745502 L47.038961,23.0005959 L49.0711914,23.0005959 C49.0908581,23.0005972 50.118569,23.0003981 50.1382306,23 C51.2775223,23.0025251 52.2029032,23.8228874 52.2029032,24.8348556 C52.2029032,25.3214979 51.9889068,25.7638309 51.6397866,26.091933 C51.2629145,26.4461162 50.7285826,26.6671861 50.1360072,26.6671861 L49.1026301,26.6697863 L52.2062011,29.9745502 M58.4675325,30 C60.4184604,30 62,28.4329966 62,26.5 C62,24.5670034 60.4184604,23 58.4675325,23 C56.5166045,23 54.9350649,24.5670034 54.9350649,26.5 C54.9350649,28.4329966 56.5166045,30 58.4675325,30 Z" id="Oval" stroke="#FFFFFF" stroke-linecap="round" stroke-linejoin="round"></path>
                        <path d="M30,19 L30,8.38679245 C30,6.43295489 31.598983,4.8490566 33.5714286,4.8490566 M40.4285714,4.8490566 C42.401017,4.8490566 44,6.43295489 44,8.38679245 L44,19 M33.3571429,16.6650943 L36.9602552,12.4131042 L40.5633676,16.6650943 M33.3571429,12.4198113 L36.9602552,8.16782114 L40.5633676,12.4198113 M37,5.41509434 C37.3944891,5.41509434 37.7142857,5.09831468 37.7142857,4.70754717 C37.7142857,4.31677966 37.3944891,4 37,4 C36.6055109,4 36.2857143,4.31677966 36.2857143,4.70754717 C36.2857143,5.09831468 36.6055109,5.41509434 37,5.41509434 Z" id="Rectangle" stroke="#FFFFFF" stroke-linecap="round" stroke-linejoin="round"></path>
                        <path d="M48,19 L48,8.38679245 C48,6.43295489 49.598983,4.8490566 51.5714286,4.8490566 M58.4285714,4.8490566 C60.401017,4.8490566 62,6.43295489 62,8.38679245 L62,19 M51.3571429,16.6650943 L54.9602552,12.4131042 L58.5633676,16.6650943 M51.3571429,12.4198113 L54.9602552,8.16782114 L58.5633676,12.4198113 M55,5.41509434 C55.3944891,5.41509434 55.7142857,5.09831468 55.7142857,4.70754717 C55.7142857,4.31677966 55.3944891,4 55,4 C54.6055109,4 54.2857143,4.31677966 54.2857143,4.70754717 C54.2857143,5.09831468 54.6055109,5.41509434 55,5.41509434 Z" id="Rectangle" stroke="#FFFFFF" stroke-linecap="round" stroke-linejoin="round"></path>
                        <g id="Logo" fill="#FFFFFF">
                            <path d="M12.933663,33 C5.73438034,33 -0.452714732,26.0216087 0.0260588272,16.5105909 C0.270878444,8.99627512 5.7049867,0 13,0 C19.7190532,0 25.392184,7.76394455 25.9608375,16.4986865 C26.5294911,25.2334284 20.8435037,33 12.933663,33 Z M14.1332877,32.725 C13.2912768,32.5918218 12.6262573,32.4630584 12.1382292,32.3387098 C11.6551411,32.2156199 11.2766202,32.0313742 10.8727028,31.8321607 C10.2034012,31.407873 9.67048809,30.9667189 9.30787237,30.5099117 C7.9850027,28.8179598 7.66847626,26.8289273 8.13047001,24.8628701 C8.66363567,22.7959752 9.26922419,21.6560095 10.3957578,20.7061666 C11.5222913,19.7563238 12.4057177,19.7006872 13.4070805,19.7563238 C14.6962157,19.8279491 16.2287695,20.6708189 16.6086152,22.160129 C17.0636161,23.9441098 16.0405123,25.4122132 14.6124764,26.0258576 C13.4452936,26.5274103 12.1987024,26.3294163 10.8727028,25.4318757 C12.2175998,26.7539748 13.7524986,27.2827616 15.4773992,27.018236 C17.4023569,26.7230303 19.271079,24.9255554 19.2224764,22.160129 C19.1738738,19.3947027 16.6843697,16.7439828 13.212589,16.7752743 C11.1471557,16.7938903 10.0547047,17.5281475 9.08698762,18.3270414 C7.8696887,19.3319763 6.36511202,21.9928852 6.50967378,24.8628701 C6.57497835,26.159362 6.72191516,28.6122614 8.87765136,30.8420316 C9.24383721,31.2207933 10.0121179,31.8984054 10.8727028,32.2831337 C11.4742576,32.5520614 12.5611192,32.6993502 14.1332877,32.725 Z" id="Egg"></path>
                        </g>
                    </g>
                </g>
            </g>
        </g>
    </g>
</svg>