<?xml version="1.0" encoding="UTF-8"?>
<svg width="50px" height="50px" viewBox="0 0 50 50" version="1.1" xmlns="http://www.w3.org/2000/svg" xmlns:xlink="http://www.w3.org/1999/xlink">
    <!-- Generator: Sketch 46.2 (44496) - http://www.bohemiancoding.com/sketch -->
    <title>Buttom_Parenting</title>
    <desc>Created with Sketch.</desc>
    <defs>
        <circle id="path-1" cx="25" cy="25" r="25"></circle>
    </defs>
    <g id="Symbols" stroke="none" stroke-width="1" fill="none" fill-rule="evenodd">
        <g id="entertainment_clicked">
            <g id="Buttom_Parenting">
                <g>
                    <g id="Oval-2">
                        <use fill="#7ED5D9" fill-rule="evenodd" xlink:href="#path-1"></use>
                        <circle stroke="#7ED5D9" stroke-width="1" cx="25" cy="25" r="24.5"></circle>
                    </g>
                    <path d="M7.14285714,30.9099211 C11.4183344,36.9699737 17.4373704,40 25.1999649,40 C32.9625595,40 38.8856045,37.0503634 42.9690999,31.1510901 M15.0913414,22.3357426 L18.7121489,22.3357426 L15.5940724,37.2496969 M15.9517335,17.9397964 L19.5725409,17.9397964 M16.9767455,13.5664074 L20.4199497,13.5935554 L20.7672057,12.1886231 L20.7672057,12.1886231 C20.8775488,11.7421958 21.2781295,11.4285714 21.7379913,11.4285714 C25.5589549,11.4285714 29.3799185,11.4285714 33.2008822,11.4285714 C34.1701152,11.4285714 37.7546844,13.1491995 37.7593088,16.7192424 C37.7637127,20.1190781 35.0126745,22.0348085 33.2008822,22.7930055 C32.0929679,23.2566444 30.5649497,23.7305228 28.6168276,24.2146409 L28.6168385,24.2146848 C28.0808799,24.3478732 27.7543701,24.890324 27.8875584,25.4262827 C27.9126276,25.5271627 27.9532731,25.623517 28.0080303,25.7118736 L35.0354725,37.0514015 M25.7277206,16.532004 C26.0987134,16.532004 26.3994626,16.2313651 26.3994626,15.8605083 C26.3994626,15.4896515 26.0987134,15.1890127 25.7277206,15.1890127 C25.3567277,15.1890127 25.0559785,15.4896515 25.0559785,15.8605083 C25.0559785,16.2313651 25.3567277,16.532004 25.7277206,16.532004 Z" id="Line-5" stroke="#FFFFFF"></path>
                </g>
            </g>
        </g>
    </g>
</svg>