<?xml version="1.0" encoding="UTF-8"?>
<svg width="50px" height="50px" viewBox="0 0 50 50" version="1.1" xmlns="http://www.w3.org/2000/svg" xmlns:xlink="http://www.w3.org/1999/xlink">
    <!-- Generator: Sketch 46.2 (44496) - http://www.bohemiancoding.com/sketch -->
    <title>Buttom_Parenting</title>
    <desc>Created with Sketch.</desc>
    <defs></defs>
    <g id="Symbols" stroke="none" stroke-width="1" fill="none" fill-rule="evenodd">
        <g id="life_unclick" stroke="#333333">
            <g id="Buttom_Parenting">
                <g>
                    <circle id="Oval-2" cx="25" cy="25" r="24.5"></circle>
                    <g id="CUp" transform="translate(11.428571, 10.000000)" stroke-linecap="round" stroke-linejoin="round">
                        <path d="M0.810210292,30.7204419 L25.4502099,30.7204419 M23.3563301,16.6068017 C22.3193306,24.303841 18.5164198,28.1830884 11.9475978,28.2445437 C4.64250692,28.3128874 0.659974315,23.7661274 1.13686838e-13,14.6042638 L25.4502099,14.6042638 C27.773213,14.5955109 28.9268625,16.0466249 28.9111586,18.9576058 C28.8980435,21.3887121 27.2800526,22.35328 26.213076,22.7839135 C25.6159909,23.024898 24.6637423,23.1501896 23.3563301,23.1597882 M12.778968,3.59847129 C12.8559978,5.12439975 12.1149322,5.88070325 10.5557711,5.86738178 C9.11904462,5.8551064 8.38517897,4.67363206 8.36632297,3.14907964 C8.34468682,1.39974633 9.86145115,-3.12273834e-13 11.9879269,-3.12638804e-13 C14.3052044,-3.12638804e-13 15.6344782,1.46857088 15.6098136,3.59847129 C15.5702033,7.01899023 11.638541,7.68553108 11.638541,9.16610617 C11.638541,10.0061905 11.638541,11.0990076 11.638541,12.4445574" id="Line-6"></path>
                    </g>
                </g>
            </g>
        </g>
    </g>
</svg>