<?xml version="1.0" encoding="UTF-8"?>
<svg width="50px" height="50px" viewBox="0 0 50 50" version="1.1" xmlns="http://www.w3.org/2000/svg" xmlns:xlink="http://www.w3.org/1999/xlink">
    <!-- Generator: Sketch 46.2 (44496) - http://www.bohemiancoding.com/sketch -->
    <title>Buttom_Parenting</title>
    <desc>Created with Sketch.</desc>
    <defs>
        <circle id="path-1" cx="25" cy="25" r="25"></circle>
    </defs>
    <g id="Symbols" stroke="none" stroke-width="1" fill="none" fill-rule="evenodd">
        <g id="medical_clicked">
            <g id="Buttom_Parenting">
                <g>
                    <g id="Oval-2">
                        <use fill="#7ED5D9" fill-rule="evenodd" xlink:href="#path-1"></use>
                        <circle stroke="#7ED5D9" stroke-width="1" cx="25" cy="25" r="24.5"></circle>
                    </g>
                    <g id="Group-2" transform="translate(10.000000, 11.428571)" stroke="#FFFFFF">
                        <path d="M15.0278098,22.3214286 L15.0278098,28.3823529 L5.7343853,28.3823529 L15.0278098,28.3823529 L15.0278098,22.3214286 L2,22.3214286 C0.8954305,22.3214286 -1.4075584e-14,21.4259981 -1.42108547e-14,20.3214286 L-1.42108547e-14,2 L-1.42108547e-14,2 C-1.43461255e-14,0.8954305 0.8954305,-1.40079486e-14 2,-1.42108547e-14 L2,-1.42108547e-14 L28,-1.42108547e-14 C29.1045695,-1.44137608e-14 30,0.8954305 30,2 L30,20.3214286 C30,21.4259981 29.1045695,22.3214286 28,22.3214286 L15.0278098,22.3214286 Z M15.0278098,28.3823529 L24.4489745,28.3823529 L15.0278098,28.3823529 L15.0278098,28.383639 L15.0278098,28.3823529 Z" id="Line-11" stroke-linecap="round" stroke-linejoin="round"></path>
                        <polygon id="Path" stroke-width="3" points="7.85714286 11.4156472 14.9842612 11.4051739 14.9842612 4.28571429 14.9842612 18.5714286 14.9842612 11.4051739 22.1428571 11.4051739"></polygon>
                    </g>
                </g>
            </g>
        </g>
    </g>
</svg>