<?xml version="1.0" encoding="UTF-8"?>
<svg width="50px" height="50px" viewBox="0 0 50 50" version="1.1" xmlns="http://www.w3.org/2000/svg" xmlns:xlink="http://www.w3.org/1999/xlink">
    <!-- Generator: Sketch 46.2 (44496) - http://www.bohemiancoding.com/sketch -->
    <title>parenting_clicked</title>
    <desc>Created with Sketch.</desc>
    <defs>
        <circle id="path-1" cx="25" cy="25" r="25"></circle>
    </defs>
    <g id="Symbols" stroke="none" stroke-width="1" fill="none" fill-rule="evenodd">
        <g id="parenting_clicked">
            <g id="Buttom_Parenting">
                <g>
                    <g id="Oval-2">
                        <use fill="#7ED5D9" fill-rule="evenodd" xlink:href="#path-1"></use>
                        <circle stroke="#7ED5D9" stroke-width="1" cx="25" cy="25" r="24.5"></circle>
                    </g>
                    <g id="Group" transform="translate(10.000000, 7.000000)">
                        <path d="M16.1103107,14.4499252 C14.1907718,12.2242441 11.8277073,11.0987943 9.0211172,11.0735757 C3.70910535,11.0258447 -0.00288483833,15.4303504 -0.00288483833,19.9142165 C-0.00288483833,24.3980825 3.4357621,28.7174901 9.0211172,28.7344265 C11.8853695,28.7431117 14.248434,27.6335503 16.1103107,25.4057422 C17.9190494,27.3093748 20.0607734,28.737877 22.5354825,29.6912486 C25.0101917,30.6446202 27.8312255,31.0628967 30.9985838,30.9460779 M31.238811,4.84165194 C29.3192721,2.61597085 26.9562076,1.49052102 24.1496175,1.46530245 C18.8376056,1.41757145 15.1256154,5.82207712 15.1256154,10.3059432 C15.1256154,14.7898092 18.5642624,19.1092168 24.1496175,19.1261532 C27.0138698,19.1348384 29.3769343,18.025277 31.238811,15.7974689" id="Line-7" stroke="#FFFFFF" stroke-linecap="round" transform="translate(15.617963, 16.215062) rotate(90.000000) translate(-15.617963, -16.215062) "></path>
                        <path d="M8.78657685,8.84871876 C8.16858573,8.84871876 7.66760494,8.33660322 7.66760494,7.7048767 C7.66760494,7.07315017 8.16858573,6.56103464 8.78657685,6.56103464 C9.40456797,6.56103464 9.90554876,7.07315017 9.90554876,7.7048767 C9.90554876,8.33660322 9.40456797,8.84871876 8.78657685,8.84871876 Z M15.5004083,8.84871876 C14.8824172,8.84871876 14.3814364,8.33660322 14.3814364,7.7048767 C14.3814364,7.07315017 14.8824172,6.56103464 15.5004083,6.56103464 C16.1183995,6.56103464 16.6193802,7.07315017 16.6193802,7.7048767 C16.6193802,8.33660322 16.1183995,8.84871876 15.5004083,8.84871876 Z M18.0964232,25.0455223 C17.4784321,25.0455223 16.9774513,24.5334068 16.9774513,23.9016803 C16.9774513,23.2699537 17.4784321,22.7578382 18.0964232,22.7578382 C18.7144143,22.7578382 19.2153951,23.2699537 19.2153951,23.9016803 C19.2153951,24.5334068 18.7144143,25.0455223 18.0964232,25.0455223 Z M24.8102547,25.0455223 C24.1922635,25.0455223 23.6912827,24.5334068 23.6912827,23.9016803 C23.6912827,23.2699537 24.1922635,22.7578382 24.8102547,22.7578382 C25.4282458,22.7578382 25.9292266,23.2699537 25.9292266,23.9016803 C25.9292266,24.5334068 25.4282458,25.0455223 24.8102547,25.0455223 Z" id="Oval-3" fill="#FFFFFF"></path>
                    </g>
                </g>
            </g>
        </g>
    </g>
</svg>